<?xml version="1.0" encoding="UTF-8" standalone="no"?>
<!DOCTYPE svg PUBLIC "-//W3C//DTD SVG 1.1//EN" "http://www.w3.org/Graphics/SVG/1.1/DTD/svg11.dtd">
<svg width="100%" height="100%" viewBox="0 0 1081 1293" version="1.1" xmlns="http://www.w3.org/2000/svg" xmlns:xlink="http://www.w3.org/1999/xlink" xml:space="preserve" xmlns:serif="http://www.serif.com/" style="fill-rule:evenodd;clip-rule:evenodd;stroke-linecap:round;stroke-linejoin:round;stroke-miterlimit:1.5;">
    <g transform="matrix(1,0,0,1,-148.737,-644.897)">
        <path d="M714.236,700.535C714.236,756.947 577.616,1369.35 610.897,1417.97C616.987,1426.87 935.671,1495.33 946.021,1456.7C957.77,1412.85 913.28,1332.21 904.473,1289.39C872.556,1134.19 808.43,996.213 759.745,848.343C749.465,817.119 760.361,760.038 746.723,732.761C740.636,720.586 724.878,724.714 724.878,707.556" style="fill:rgb(255,142,0);stroke:black;stroke-width:1px;"/>
        <path d="M753.804,1487.83C753.804,1515.52 751.197,1539.08 743.282,1565.02C730.437,1607.12 731.25,1604.88 711.336,1645.72C702.554,1663.72 684.782,1678.31 664.687,1681.04C566.56,1694.41 614.07,1621.41 557.566,1573C516.063,1537.45 404.96,1546.68 354.507,1553.26C302.205,1560.07 330.946,1640.97 348.326,1669.92C349.292,1671.53 375.63,1705.69 377.932,1700.67C379.43,1697.4 375.688,1692.8 374.031,1691.18C350.133,1667.92 325.84,1645.08 302.197,1621.57C268.652,1588.22 234.232,1559.96 193.796,1536.95C189.908,1534.74 182.96,1529.06 180.954,1533.06C160.214,1574.39 181.06,1626.99 166.111,1666.62C148.693,1712.79 144.404,1785.81 154.909,1834.87C172.992,1919.32 328.789,1756.63 367.27,1786.1C408.178,1817.43 464.732,1919.45 517.539,1932.47C577.667,1947.29 621.817,1917.09 677.969,1909.89C858.59,1886.72 1102.32,2012.76 1199.93,1807.29C1214.3,1777.04 1249.42,1665.66 1211.95,1642.7C1171.33,1617.8 1062.37,1546.24 999.611,1573.82C978.245,1583.21 966.169,1616.36 953.442,1628.93C942.66,1639.59 895.691,1646.19 879.168,1651.8C867.803,1655.66 875.388,1619.43 863.385,1619.43C826.386,1619.43 784.579,1614.41 748.763,1623.31C747.048,1623.74 744.719,1622.07 743.462,1623.31C740.647,1626.09 744.743,1642.3 745.262,1644.38C749.537,1661.48 751.604,1672.35 761.185,1657.88C803.39,1594.14 810.875,1549.22 810.875,1474.36" style="fill:rgb(110,193,82);stroke:black;stroke-width:1px;"/>
        <path d="M356.228,1495.59C356.228,1439.31 381.793,1389.43 390.194,1334.5C411.122,1197.66 424.896,1059.01 469.109,926.778C488.453,868.923 505.036,814.449 505.036,752.245C505.036,727.942 517.89,704.682 522.78,680.791C523.238,678.553 527.292,662.747 527.901,664.888C550.974,746.06 584.683,833.785 623.639,910.435C643.083,948.693 769.044,1069.17 768.887,1095.23C768.844,1102.28 683.577,1082.48 679.05,1081.37C677.049,1080.88 675.116,1080.14 673.189,1079.41C664.374,1076.08 665.901,1077.02 656.145,1074.93C620.131,1067.2 360.863,1057.79 343.865,1074.59C343.751,1074.7 362.707,1080.58 401.316,1092.41C437.129,1103.38 475.031,1115.37 509.937,1129.2C538.694,1140.59 532.645,1180.07 558.687,1195.35C591.825,1214.8 634.177,1217.5 671.108,1225.63C675.586,1226.62 701.884,1236.27 704.995,1233.12C708.2,1229.87 706.013,1223.88 704.995,1219.43C693.68,1170.03 693.092,1124.76 693.092,1073.89C693.092,1071.24 697.533,1025.86 700.294,1028.62C710.428,1038.75 684.569,1576.7 659.966,1601.01C657.398,1603.55 653.532,1599.09 653.105,1597.39C643.472,1559.07 651.144,1510.66 651.144,1471.16C651.144,1469.73 648.606,1464.82 647.644,1464.18C611.234,1439.95 524.981,1477.31 498.115,1443.34C450.25,1382.81 495.505,1350.88 426.381,1316.31C420.379,1313.31 414.785,1329.24 413.539,1331.32C386.046,1377.23 352.198,1414.62 340.665,1468.3C334.348,1497.71 341.218,1530.7 333.943,1559.48C333.227,1562.32 332.123,1570.99 332.123,1568.06C332.123,1525.51 569.763,1417.15 611.937,1374.46C631.307,1354.86 647.026,1322.86 680.99,1345.2C692.369,1352.68 730.876,1364.18 717.257,1364.02C687.723,1363.67 592.568,1267.2 538.143,1258.12C523.685,1255.71 359.908,1247.85 359.908,1229.12" style="fill:none;stroke:rgb(88,78,78);stroke-width:39.58px;"/>
    </g>
</svg>
